<svg width="205" height="249" viewBox="0 0 205 249" fill="none" xmlns="http://www.w3.org/2000/svg">
<path d="M57.3357 37.4857C59.8767 33.3307 62.2868 30.7338 67.238 26.1893C72.1891 21.6448 79.415 16.1265 85.169 11.9067C90.923 7.68696 98.818 1 98.818 1C98.818 1 103.366 6.06394 104.304 10.3487C105.243 14.6334 106.579 18.2689 103.503 25.7997C100.427 33.3306 89.9862 48.6522 83.5646 54.8846C80.5405 57.8196 69.9958 66.0817 67.1055 76.049C65.6138 81.193 65.9012 89.6825 65.9012 89.6825C65.9012 89.6825 54.2587 79.6085 51.4493 70.8553C48.932 63.0123 50.3799 53.0668 51.4492 49.6909C52.5184 46.315 54.7948 41.6406 57.3357 37.4857Z" fill="#00ADEF" stroke="#00ADEF"/>
<path d="M154.022 37.692C151.479 33.5432 148.6 30.561 143.646 26.0232C138.691 21.4853 132.409 16.2503 126.651 12.0367C120.893 7.82304 112.512 1.25969 112.512 1.25969C112.512 1.25969 108.763 6.07021 107.824 10.3487C106.885 14.6272 105.455 18.5034 108.534 26.0232C111.612 33.543 121.43 47.8825 127.856 54.1058C130.882 57.0365 138.478 65.8912 143.244 75.1403C146.054 80.5937 145.251 89.6827 145.251 89.6827C145.251 89.6827 157.101 79.7532 159.912 71.0129C162.431 63.1814 160.982 53.2504 159.912 49.8794C158.842 46.5084 156.564 41.8409 154.022 37.692Z" fill="#00ADEF" stroke="#00ADEF"/>
<path d="M168.401 84.7488C175.627 72.0242 178.839 57.222 175.627 51.8985C172.414 46.5751 201.318 81.1132 202.925 95.0064C204.531 108.9 205.334 120.975 193.29 137.984C181.246 154.994 180.711 154.994 168.401 166.42C156.09 177.846 121.164 203.036 117.685 205.503C114.207 207.97 104.036 177.976 108.452 163.434C112.868 148.891 124.51 136.037 124.51 136.037L148.329 108.9C148.329 108.9 161.175 97.4734 168.401 84.7488Z" fill="#00A650" stroke="#00A650"/>
<path d="M37.9554 84.7719C30.4179 72.0512 27.0672 57.2535 30.4179 51.9316C33.7685 46.6098 3.61847 81.1374 1.94286 95.0264C0.267242 108.915 -0.570251 120.987 11.9929 137.991C24.556 154.996 25.1143 154.996 37.9554 166.418C50.7964 177.841 87.2288 203.023 90.8574 205.489C94.486 207.955 105.095 177.971 100.489 163.433C95.8824 148.895 83.7387 136.044 83.7387 136.044L58.8929 108.915C58.8929 108.915 45.4929 97.4926 37.9554 84.7719Z" fill="#00A650" stroke="#00A650"/>
<path d="M127.356 80.7236C127.356 84.9721 125.009 88.8606 121.132 91.7052C117.255 94.5496 111.875 96.3241 105.91 96.3241C99.9453 96.3241 94.5651 94.5496 90.6881 91.7052C86.8109 88.8606 84.4647 84.9721 84.4647 80.7236C84.4647 76.475 86.8109 72.5865 90.6881 69.7419C94.5651 66.8975 99.9453 65.123 105.91 65.123C111.875 65.123 117.255 66.8975 121.132 69.7419C125.009 72.5865 127.356 76.475 127.356 80.7236Z" fill="#00ADEF" stroke="#00ADEF"/>
<path d="M48.0076 232.172H32.2464L32.1621 226.34H45.184C47.4878 226.34 49.3561 226.162 50.789 225.805C52.2499 225.448 53.3175 224.931 53.9918 224.253C54.6661 223.558 55.0032 222.701 55.0032 221.685C55.0032 220.526 54.6661 219.589 53.9918 218.876C53.3175 218.162 52.2499 217.645 50.789 217.324C49.3561 216.985 47.5019 216.816 45.2262 216.816H37.2191V249H23.4808V210.047H45.2262C48.9066 210.047 52.1937 210.261 55.0875 210.689C57.9813 211.117 60.4396 211.777 62.4624 212.669C64.5133 213.561 66.0726 214.675 67.1402 216.013C68.2078 217.351 68.7416 218.929 68.7416 220.748C68.7416 222.336 68.1797 223.816 67.0559 225.19C65.9602 226.563 64.1902 227.678 61.746 228.534C59.3017 229.39 56.0287 229.854 51.9268 229.925L48.0076 232.172ZM47.4597 249H28.7485L33.7213 242.258H47.4597C49.5668 242.258 51.2806 242.044 52.6011 241.616C53.9215 241.188 54.8908 240.608 55.5089 239.877C56.127 239.146 56.436 238.325 56.436 237.416C56.436 236.346 56.141 235.418 55.5511 234.633C54.9892 233.849 54.0901 233.242 52.8539 232.814C51.6459 232.386 50.0304 232.172 48.0076 232.172H35.702L35.7863 226.34H50.8311L54.0339 228.641C57.9391 228.587 61.0576 228.988 63.3895 229.845C65.7495 230.683 67.4492 231.789 68.4887 233.162C69.5283 234.535 70.048 235.989 70.048 237.523C70.048 240.055 69.1911 242.178 67.4773 243.89C65.7635 245.584 63.221 246.86 59.8496 247.716C56.5063 248.572 52.3763 249 47.4597 249Z" fill="#F31C23"/>
<path d="M86.1091 210.047H96.3056L109.523 237.897L122.703 210.047H132.899L113.639 249H105.369L86.1091 210.047ZM80.2179 210.047H90.6031L92.5291 238.914V249H80.2179V210.047ZM128.405 210.047H138.828V249H126.479V238.914L128.405 210.047Z" fill="#F31C23"/>
<path d="M179.953 238.481C179.953 237.838 179.804 237.266 179.506 236.762C179.208 236.241 178.666 235.764 177.881 235.33C177.095 234.896 175.985 234.462 174.549 234.028C173.114 233.577 171.231 233.117 168.902 232.648C166.247 232.093 163.715 231.468 161.304 230.773C158.921 230.062 156.794 229.237 154.926 228.3C153.057 227.362 151.58 226.269 150.497 225.019C149.441 223.769 148.913 222.311 148.913 220.645C148.913 219.03 149.468 217.572 150.578 216.27C151.689 214.968 153.246 213.857 155.251 212.937C157.255 212 159.611 211.288 162.32 210.802C165.028 210.299 168.008 210.047 171.258 210.047C175.592 210.047 179.397 210.542 182.675 211.531C185.979 212.503 188.552 213.875 190.394 215.645C192.236 217.399 193.157 219.438 193.157 221.764H179.993C179.993 220.74 179.655 219.837 178.978 219.056C178.327 218.258 177.325 217.633 175.971 217.182C174.644 216.73 172.978 216.505 170.974 216.505C169.024 216.505 167.385 216.695 166.058 217.077C164.758 217.442 163.769 217.945 163.092 218.588C162.442 219.23 162.117 219.933 162.117 220.697C162.117 221.304 162.361 221.86 162.848 222.363C163.363 222.849 164.094 223.309 165.042 223.743C166.017 224.16 167.209 224.559 168.617 224.941C170.026 225.323 171.637 225.687 173.452 226.034C176.621 226.677 179.424 227.388 181.862 228.17C184.327 228.951 186.399 229.836 188.078 230.825C189.758 231.815 191.017 232.935 191.857 234.184C192.723 235.434 193.157 236.849 193.157 238.429C193.157 240.112 192.642 241.605 191.613 242.907C190.611 244.209 189.148 245.32 187.225 246.24C185.329 247.143 183.054 247.828 180.4 248.297C177.745 248.766 174.779 249 171.502 249C168.522 249 165.584 248.757 162.686 248.271C159.787 247.768 157.16 247.004 154.804 245.98C152.474 244.955 150.605 243.654 149.197 242.074C147.816 240.477 147.125 238.585 147.125 236.398H160.37C160.37 237.543 160.627 238.515 161.142 239.314C161.656 240.095 162.388 240.729 163.336 241.215C164.311 241.701 165.489 242.048 166.87 242.256C168.252 242.464 169.796 242.569 171.502 242.569C173.479 242.569 175.077 242.395 176.296 242.048C177.542 241.683 178.463 241.189 179.059 240.564C179.655 239.939 179.953 239.244 179.953 238.481Z" fill="#F31C23"/>
</svg>
