<svg xlink="http://www.w3.org/1999/xlink" viewBox="0 0 5000 5000" xmlns="http://www.w3.org/2000/svg" style="transform: scale(1);"><defs><filter id="goo"><feGaussianBlur in="SourceGraphic" stdDeviation="0" result="blur"></feGaussianBlur><feColorMatrix in="blur" type="matrix" values="1 0 0 0 0 0 1 0 0 0 0 0 1 0 0 0 0 0 19 -9" result="good"></feColorMatrix><feComposite in="SourceGraphic" in2="goo" operator="atop"></feComposite></filter><path d="M269,224C277,230 282,240 282,250C262,264 247,268 223,267C234,254 233,249 220,240Q235,204 269,224z" id="P0"></path><path d="M269,256L246,270L233,261L245,231L269,256z" id="P1"></path><path d="M275,276C261,265 259,266 263,283L218,267Q206,218 257,215L275,276z" id="P2"></path><path d="M255,234L265,258L248,267L234,254L255,234z" id="P3"></path><path d="M290,253L284,271Q231,307 210,250C216,222 242,206 267,214C265,235 270,242 290,253z" id="P4"></path><path d="M236,249L250,236L261,259L249,264L236,249z" id="P5"></path><path d="M220,250Q212,226 239,222C254,234 263,239 280,248Q289,272 263,277L220,250z" id="P6"></path><path d="M253,266L235,256L242,236L266,248L253,266z" id="P7"></path><path d="M284,231Q290,293 231,284C233,262 230,254 213,238C232,243 232,242 216,231C242,230 257,229 284,231z" id="P8"></path><path d="M231,246L245,232L267,241L234,260L231,246z" id="P9"></path></defs><rect id="RECT" width="5000" height="5000" fill="#FFFFFF"></rect><g id="group" fill="#00ADEF" filter=""><use x="-171" y="-41" href="#P1"></use><use x="-57" y="212" href="#P0"></use><use x="-7" y="349" href="#P2"></use><use x="8" y="774" href="#P0"></use><use x="-234" y="900" href="#P3"></use><use x="-20" y="1408" href="#P6"></use><use x="18" y="1707" href="#P3"></use><use x="18" y="1990" href="#P7"></use><use x="-93" y="2244" href="#P8"></use><use x="0" y="2474" href="#P3"></use><use x="-173" y="2656" href="#P9"></use><use x="5" y="3055" href="#P0"></use><use x="-103" y="3295" href="#P2"></use><use x="12" y="3713" href="#P2"></use><use x="-16" y="3969" href="#P4"></use><use x="-132" y="4259" href="#P4"></use><use x="-149" y="4550" href="#P8"></use><use x="-37" y="4836" href="#P0"></use><use x="-23" y="5066" href="#P6"></use><use x="-73" y="5324" href="#P8"></use><use x="54" y="-211" href="#P0"></use><use x="165" y="274" href="#P1"></use><use x="224" y="437" href="#P3"></use><use x="146" y="760" href="#P6"></use><use x="124" y="902" href="#P6"></use><use x="132" y="1356" href="#P0"></use><use x="264" y="1552" href="#P6"></use><use x="259" y="1816" href="#P4"></use><use x="301" y="2217" href="#P4"></use><use x="258" y="2414" href="#P9"></use><use x="329" y="2703" href="#P7"></use><use x="322" y="2959" href="#P2"></use><use x="82" y="3352" href="#P4"></use><use x="47" y="3665" href="#P3"></use><use x="43" y="3997" href="#P5"></use><use x="306" y="4141" href="#P7"></use><use x="196" y="4325" href="#P9"></use><use x="196" y="4739" href="#P9"></use><use x="106" y="4992" href="#P9"></use><use x="216" y="5298" href="#P3"></use><use x="591" y="-191" href="#P0"></use><use x="452" y="61" href="#P5"></use><use x="458" y="487" href="#P9"></use><use x="429" y="729" href="#P0"></use><use x="359" y="990" href="#P9"></use><use x="514" y="1460" href="#P2"></use><use x="603" y="1553" href="#P7"></use><use x="521" y="1965" href="#P4"></use><use x="562" y="2099" href="#P6"></use><use x="448" y="2350" href="#P1"></use><use x="564" y="2792" href="#P7"></use><use x="570" y="2936" href="#P7"></use><use x="528" y="3232" href="#P2"></use><use x="401" y="3632" href="#P7"></use><use x="329" y="4013" href="#P8"></use><use x="587" y="4180" href="#P8"></use><use x="340" y="4575" href="#P2"></use><use x="412" y="4704" href="#P1"></use><use x="476" y="5113" href="#P4"></use><use x="606" y="5287" href="#P4"></use><use x="774" y="-65" href="#P1"></use><use x="693" y="81" href="#P0"></use><use x="785" y="465" href="#P3"></use><use x="759" y="735" href="#P8"></use><use x="820" y="1084" href="#P8"></use><use x="647" y="1263" href="#P2"></use><use x="630" y="1493" href="#P6"></use><use x="668" y="1793" href="#P5"></use><use x="895" y="2296" href="#P2"></use><use x="652" y="2562" href="#P6"></use><use x="809" y="2776" href="#P3"></use><use x="732" y="3101" href="#P2"></use><use x="643" y="3403" href="#P5"></use><use x="768" y="3546" href="#P3"></use><use x="696" y="3785" href="#P2"></use><use x="840" y="4190" href="#P7"></use><use x="850" y="4427" href="#P0"></use><use x="827" y="4883" href="#P2"></use><use x="675" y="5066" href="#P2"></use><use x="680" y="5338" href="#P7"></use><use x="1042" y="-21" href="#P3"></use><use x="975" y="244" href="#P9"></use><use x="1079" y="518" href="#P5"></use><use x="1169" y="859" href="#P9"></use><use x="1038" y="1168" href="#P7"></use><use x="1093" y="1388" href="#P6"></use><use x="1034" y="1623" href="#P1"></use><use x="989" y="1847" href="#P6"></use><use x="910" y="2054" href="#P9"></use><use x="1045" y="2367" href="#P9"></use><use x="1129" y="2788" href="#P5"></use><use x="1097" y="3167" href="#P6"></use><use x="991" y="3363" href="#P5"></use><use x="1125" y="3534" href="#P9"></use><use x="1013" y="3752" href="#P8"></use><use x="1092" y="4097" href="#P5"></use><use x="1172" y="4395" href="#P8"></use><use x="966" y="4859" href="#P4"></use><use x="926" y="5095" href="#P4"></use><use x="908" y="5311" href="#P7"></use><use x="1309" y="-146" href="#P0"></use><use x="1443" y="84" href="#P9"></use><use x="1337" y="545" href="#P6"></use><use x="1219" y="703" href="#P7"></use><use x="1201" y="982" href="#P1"></use><use x="1466" y="1308" href="#P8"></use><use x="1218" y="1524" href="#P7"></use><use x="1402" y="1931" href="#P5"></use><use x="1456" y="2133" href="#P2"></use><use x="1396" y="2489" href="#P0"></use><use x="1477" y="2749" href="#P8"></use><use x="1237" y="2987" href="#P2"></use><use x="1482" y="3341" href="#P5"></use><use x="1279" y="3483" href="#P7"></use><use x="1221" y="3937" href="#P0"></use><use x="1304" y="4058" href="#P4"></use><use x="1389" y="4557" href="#P1"></use><use x="1389" y="4761" href="#P2"></use><use x="1433" y="5026" href="#P6"></use><use x="1318" y="5401" href="#P7"></use><use x="1644" y="-20" href="#P7"></use><use x="1683" y="138" href="#P0"></use><use x="1498" y="504" href="#P0"></use><use x="1719" y="672" href="#P9"></use><use x="1677" y="908" href="#P2"></use><use x="1746" y="1270" href="#P7"></use><use x="1643" y="1730" href="#P5"></use><use x="1599" y="1938" href="#P5"></use><use x="1709" y="2221" href="#P1"></use><use x="1515" y="2527" href="#P5"></use><use x="1635" y="2627" href="#P2"></use><use x="1578" y="3174" href="#P1"></use><use x="1609" y="3262" href="#P6"></use><use x="1582" y="3621" href="#P4"></use><use x="1660" y="3896" href="#P1"></use><use x="1719" y="4203" href="#P4"></use><use x="1734" y="4537" href="#P1"></use><use x="1747" y="4715" href="#P8"></use><use x="1510" y="5077" href="#P9"></use><use x="1542" y="5356" href="#P5"></use><use x="1843" y="-28" href="#P8"></use><use x="1891" y="192" href="#P8"></use><use x="2034" y="431" href="#P9"></use><use x="2033" y="696" href="#P6"></use><use x="1822" y="985" href="#P9"></use><use x="1989" y="1286" href="#P9"></use><use x="1913" y="1721" href="#P3"></use><use x="2023" y="1779" href="#P6"></use><use x="1969" y="2161" href="#P6"></use><use x="1869" y="2380" href="#P2"></use><use x="1909" y="2861" href="#P7"></use><use x="1980" y="3142" href="#P2"></use><use x="2016" y="3244" href="#P8"></use><use x="1818" y="3619" href="#P5"></use><use x="2008" y="3958" href="#P5"></use><use x="2028" y="4061" href="#P9"></use><use x="1905" y="4395" href="#P7"></use><use x="1968" y="4743" href="#P3"></use><use x="1778" y="5048" href="#P0"></use><use x="2026" y="5461" href="#P4"></use><use x="2227" y="-103" href="#P0"></use><use x="2302" y="219" href="#P6"></use><use x="2348" y="599" href="#P8"></use><use x="2269" y="871" href="#P3"></use><use x="2134" y="933" href="#P8"></use><use x="2225" y="1220" href="#P1"></use><use x="2354" y="1724" href="#P1"></use><use x="2167" y="1840" href="#P5"></use><use x="2135" y="2315" href="#P0"></use><use x="2220" y="2353" href="#P8"></use><use x="2069" y="2889" href="#P1"></use><use x="2269" y="2938" href="#P3"></use><use x="2274" y="3288" href="#P2"></use><use x="2129" y="3608" href="#P7"></use><use x="2227" y="3849" href="#P9"></use><use x="2096" y="4313" href="#P9"></use><use x="2220" y="4379" href="#P4"></use><use x="2167" y="4884" href="#P5"></use><use x="2112" y="5091" href="#P8"></use><use x="2117" y="5195" href="#P7"></use><use x="2637" y="-208" href="#P5"></use><use x="2432" y="244" href="#P2"></use><use x="2419" y="566" href="#P5"></use><use x="2587" y="800" href="#P1"></use><use x="2396" y="931" href="#P5"></use><use x="2506" y="1421" href="#P2"></use><use x="2480" y="1716" href="#P1"></use><use x="2486" y="1906" href="#P1"></use><use x="2356" y="2043" href="#P6"></use><use x="2581" y="2420" href="#P3"></use><use x="2579" y="2701" href="#P0"></use><use x="2533" y="3137" href="#P9"></use><use x="2574" y="3370" href="#P7"></use><use x="2600" y="3745" href="#P3"></use><use x="2506" y="4023" href="#P7"></use><use x="2478" y="4314" href="#P6"></use><use x="2453" y="4570" href="#P0"></use><use x="2424" y="4854" href="#P4"></use><use x="2408" y="5072" href="#P6"></use><use x="2572" y="5390" href="#P5"></use><use x="2683" y="-97" href="#P6"></use><use x="2860" y="106" href="#P1"></use><use x="2847" y="360" href="#P6"></use><use x="2801" y="620" href="#P6"></use><use x="2922" y="948" href="#P0"></use><use x="2834" y="1314" href="#P4"></use><use x="2728" y="1688" href="#P2"></use><use x="2799" y="1806" href="#P6"></use><use x="2769" y="2126" href="#P0"></use><use x="2677" y="2491" href="#P2"></use><use x="2730" y="2764" href="#P5"></use><use x="2905" y="3040" href="#P1"></use><use x="2756" y="3400" href="#P1"></use><use x="2800" y="3565" href="#P5"></use><use x="2814" y="4013" href="#P5"></use><use x="2753" y="4190" href="#P3"></use><use x="2707" y="4559" href="#P2"></use><use x="2796" y="4705" href="#P5"></use><use x="2646" y="5001" href="#P1"></use><use x="2916" y="5283" href="#P3"></use><use x="3212" y="-207" href="#P6"></use><use x="3174" y="281" href="#P0"></use><use x="3071" y="371" href="#P7"></use><use x="3085" y="662" href="#P3"></use><use x="2998" y="1098" href="#P2"></use><use x="3217" y="1374" href="#P7"></use><use x="3031" y="1637" href="#P4"></use><use x="3081" y="1939" href="#P3"></use><use x="3122" y="2192" href="#P9"></use><use x="3127" y="2482" href="#P3"></use><use x="2961" y="2700" href="#P3"></use><use x="3113" y="3009" href="#P8"></use><use x="3201" y="3274" href="#P2"></use><use x="2975" y="3604" href="#P7"></use><use x="3122" y="4012" href="#P4"></use><use x="2984" y="4223" href="#P8"></use><use x="3194" y="4356" href="#P3"></use><use x="3018" y="4677" href="#P3"></use><use x="3056" y="4913" href="#P8"></use><use x="2967" y="5394" href="#P8"></use><use x="3273" y="-121" href="#P8"></use><use x="3418" y="96" href="#P7"></use><use x="3231" y="512" href="#P4"></use><use x="3461" y="849" href="#P5"></use><use x="3481" y="1035" href="#P0"></use><use x="3290" y="1389" href="#P7"></use><use x="3475" y="1688" href="#P4"></use><use x="3329" y="1971" href="#P8"></use><use x="3453" y="2112" href="#P9"></use><use x="3255" y="2590" href="#P8"></use><use x="3417" y="2852" href="#P3"></use><use x="3283" y="3137" href="#P2"></use><use x="3341" y="3238" href="#P9"></use><use x="3452" y="3726" href="#P1"></use><use x="3501" y="4019" href="#P8"></use><use x="3458" y="4038" href="#P4"></use><use x="3428" y="4354" href="#P8"></use><use x="3360" y="4650" href="#P3"></use><use x="3259" y="4907" href="#P2"></use><use x="3480" y="5211" href="#P7"></use><use x="3518" y="-13" href="#P9"></use><use x="3704" y="106" href="#P0"></use><use x="3609" y="413" href="#P1"></use><use x="3788" y="778" href="#P7"></use><use x="3540" y="1100" href="#P1"></use><use x="3770" y="1424" href="#P5"></use><use x="3761" y="1495" href="#P7"></use><use x="3721" y="1990" href="#P4"></use><use x="3668" y="2299" href="#P7"></use><use x="3639" y="2572" href="#P3"></use><use x="3753" y="2845" href="#P9"></use><use x="3675" y="3035" href="#P6"></use><use x="3546" y="3386" href="#P8"></use><use x="3774" y="3650" href="#P9"></use><use x="3789" y="3837" href="#P5"></use><use x="3650" y="4237" href="#P4"></use><use x="3639" y="4534" href="#P7"></use><use x="3642" y="4605" href="#P7"></use><use x="3768" y="4917" href="#P8"></use><use x="3632" y="5313" href="#P7"></use><use x="3989" y="-207" href="#P1"></use><use x="4061" y="275" href="#P6"></use><use x="3878" y="422" href="#P3"></use><use x="3943" y="653" href="#P3"></use><use x="3967" y="1067" href="#P3"></use><use x="3922" y="1426" href="#P6"></use><use x="4088" y="1648" href="#P6"></use><use x="3966" y="1943" href="#P9"></use><use x="3812" y="2292" href="#P0"></use><use x="3816" y="2597" href="#P7"></use><use x="3855" y="2667" href="#P3"></use><use x="3876" y="3063" href="#P4"></use><use x="3910" y="3301" href="#P6"></use><use x="3976" y="3617" href="#P7"></use><use x="3814" y="3953" href="#P9"></use><use x="3848" y="4225" href="#P9"></use><use x="3901" y="4349" href="#P3"></use><use x="3824" y="4819" href="#P4"></use><use x="4072" y="4967" href="#P7"></use><use x="4009" y="5376" href="#P6"></use><use x="4322" y="29" href="#P3"></use><use x="4262" y="90" href="#P9"></use><use x="4119" y="502" href="#P9"></use><use x="4225" y="805" href="#P7"></use><use x="4236" y="997" href="#P9"></use><use x="4273" y="1183" href="#P4"></use><use x="4101" y="1640" href="#P4"></use><use x="4235" y="1950" href="#P1"></use><use x="4301" y="2227" href="#P2"></use><use x="4124" y="2552" href="#P4"></use><use x="4343" y="2765" href="#P6"></use><use x="4303" y="2991" href="#P2"></use><use x="4284" y="3353" href="#P5"></use><use x="4248" y="3673" href="#P4"></use><use x="4110" y="3912" href="#P8"></use><use x="4143" y="4089" href="#P2"></use><use x="4270" y="4502" href="#P5"></use><use x="4146" y="4721" href="#P9"></use><use x="4200" y="4994" href="#P5"></use><use x="4128" y="5264" href="#P3"></use><use x="4653" y="-124" href="#P7"></use><use x="4434" y="160" href="#P0"></use><use x="4525" y="440" href="#P6"></use><use x="4665" y="733" href="#P1"></use><use x="4666" y="951" href="#P0"></use><use x="4652" y="1434" href="#P1"></use><use x="4504" y="1470" href="#P7"></use><use x="4589" y="2021" href="#P7"></use><use x="4595" y="2082" href="#P9"></use><use x="4538" y="2466" href="#P5"></use><use x="4646" y="2840" href="#P7"></use><use x="4496" y="3144" href="#P3"></use><use x="4596" y="3417" href="#P4"></use><use x="4656" y="3733" href="#P9"></use><use x="4462" y="3812" href="#P5"></use><use x="4665" y="4135" href="#P0"></use><use x="4395" y="4535" href="#P4"></use><use x="4394" y="4696" href="#P6"></use><use x="4668" y="5051" href="#P9"></use><use x="4407" y="5226" href="#P2"></use><use x="4744" y="-225" href="#P9"></use><use x="4925" y="112" href="#P3"></use><use x="4753" y="422" href="#P7"></use><use x="4915" y="684" href="#P1"></use><use x="4720" y="1077" href="#P3"></use><use x="4778" y="1358" href="#P9"></use><use x="4954" y="1500" href="#P3"></use><use x="4901" y="2026" href="#P0"></use><use x="4904" y="2169" href="#P0"></use><use x="4811" y="2333" href="#P9"></use><use x="4770" y="2875" href="#P5"></use><use x="4896" y="3127" href="#P4"></use><use x="4907" y="3192" href="#P8"></use><use x="4810" y="3743" href="#P9"></use><use x="4802" y="3858" href="#P0"></use><use x="4960" y="4133" href="#P7"></use><use x="4862" y="4404" href="#P6"></use><use x="4930" y="4790" href="#P1"></use><use x="4789" y="4926" href="#P2"></use><use x="4760" y="5237" href="#P1"></use><use x="5034" y="-69" href="#P5"></use><use x="5086" y="283" href="#P0"></use><use x="5074" y="547" href="#P2"></use><use x="4984" y="811" href="#P0"></use><use x="5095" y="1157" href="#P1"></use><use x="5055" y="1321" href="#P4"></use><use x="5195" y="1541" href="#P1"></use><use x="5220" y="1987" href="#P5"></use><use x="5113" y="2073" href="#P0"></use><use x="5140" y="2495" href="#P3"></use><use x="5079" y="2796" href="#P0"></use><use x="5061" y="2999" href="#P2"></use><use x="5219" y="3186" href="#P1"></use><use x="5062" y="3613" href="#P2"></use><use x="5224" y="3793" href="#P8"></use><use x="5066" y="4054" href="#P7"></use><use x="5194" y="4444" href="#P9"></use><use x="5194" y="4748" href="#P1"></use><use x="5086" y="5150" href="#P7"></use><use x="5241" y="5251" href="#P0"></use></g></svg>